<?xml version="1.0" standalone="no"?>
<!DOCTYPE svg PUBLIC "-//W3C//DTD SVG 20010904//EN"
 "http://www.w3.org/TR/2001/REC-SVG-20010904/DTD/svg10.dtd">
<svg version="1.0" xmlns="http://www.w3.org/2000/svg"
 width="1200.000000pt" height="1200.000000pt" viewBox="0 0 1200.000000 1200.000000"
 preserveAspectRatio="xMidYMid meet">
<metadata>
Created by potrace 1.11, written by Peter Selinger 2001-2013
</metadata>
<g transform="translate(0.000000,1200.000000) scale(0.100000,-0.100000)"
fill="#000000" stroke="none">
<path d="M300 11184 c-53 -49 -49 -49 -138 -22 -54 16 -62 6 -62 -72 0 -191
153 -531 381 -845 139 -192 282 -361 542 -637 64 -69 117 -131 117 -137 0 -6
-20 -51 -44 -99 -117 -234 -164 -472 -146 -733 20 -266 142 -518 317 -651 176
-134 328 -176 601 -165 323 13 576 83 788 217 20 12 32 4 170 -112 82 -69 169
-144 194 -166 l45 -40 -85 -6 c-47 -3 -382 -8 -745 -10 -1106 -9 -1601 -42
-1720 -116 -40 -25 -43 -44 -15 -100 25 -50 25 -86 0 -128 -44 -72 -18 -96
137 -122 255 -43 715 -58 2031 -67 l1032 -6 0 -30 c0 -16 25 -486 55 -1046 30
-559 58 -1087 62 -1174 l8 -157 -200 0 c-110 1 -528 5 -930 10 -1177 13 -2140
-9 -2206 -51 -63 -41 302 -97 1156 -178 455 -44 1346 -116 1863 -153 279 -19
325 -24 333 -39 5 -9 13 -280 19 -601 16 -899 29 -1448 40 -1618 32 -488 109
-1005 172 -1153 23 -53 38 -56 50 -11 4 16 15 277 23 579 16 600 20 677 70
1585 19 338 40 747 47 908 l12 292 40 0 c23 0 100 -4 171 -10 211 -16 1860
-118 2250 -140 534 -30 564 -32 582 -45 12 -9 18 -39 24 -131 27 -396 57 -715
100 -1054 127 -1003 354 -1850 497 -1850 8 0 38 14 65 32 45 29 57 32 117 30
93 -4 96 1 93 147 -1 64 -7 150 -13 191 -6 41 -45 293 -85 560 -86 561 -134
917 -170 1255 -14 132 -27 257 -30 278 -3 23 -2 37 4 35 5 -1 143 -113 306
-248 163 -135 305 -252 316 -260 17 -14 18 -17 5 -36 -33 -47 -116 -226 -149
-320 -170 -489 -127 -1072 101 -1361 92 -115 171 -174 295 -218 77 -28 79 -28
270 -22 269 8 490 45 722 122 220 72 380 151 529 262 52 38 92 61 99 56 7 -4
131 -96 275 -205 231 -174 399 -288 424 -288 17 0 6 25 -29 69 -20 25 -153
163 -295 306 l-257 260 46 65 c165 234 198 518 88 765 -91 206 -301 408 -569
546 l-118 61 6 52 c5 34 17 63 35 86 64 81 61 107 -23 164 -128 88 -313 135
-525 136 -261 0 -427 -58 -668 -236 -28 -20 13 -53 -463 376 -308 278 -377
346 -359 348 12 2 169 -3 348 -12 2307 -113 3415 -122 3576 -27 39 22 41 41
14 109 l-23 56 27 48 c15 26 27 57 27 68 0 115 -911 186 -3694 285 -225 8
-413 18 -417 22 -19 20 -70 1327 -85 2181 l-7 382 49 0 c87 0 1160 29 1479 40
277 10 715 35 1240 72 179 12 945 18 1182 8 78 -3 124 -1 125 5 5 17 -113 73
-225 105 -275 81 -664 122 -1296 138 l-274 7 -49 79 c-62 100 -190 278 -337
470 -65 83 -120 156 -124 162 -4 7 19 29 56 55 279 193 789 594 940 738 110
106 147 155 154 208 4 32 -1 46 -33 93 -20 30 -56 89 -78 130 l-41 75 -56 3
c-51 3 -66 -2 -165 -53 -126 -64 -296 -185 -521 -371 -139 -115 -461 -393
-535 -461 l-26 -25 -115 153 c-147 198 -319 452 -442 654 -127 208 -177 279
-219 304 -43 27 -64 26 -156 -3 -41 -14 -97 -28 -124 -31 -75 -10 -96 -37 -96
-123 0 -206 175 -550 465 -912 62 -79 157 -189 209 -246 53 -56 96 -107 96
-112 0 -12 -168 -151 -300 -249 -118 -86 -282 -196 -375 -250 -116 -68 -129
-97 -54 -127 55 -22 180 -20 302 5 163 33 336 103 586 237 69 37 134 70 143
74 13 5 53 -23 158 -112 138 -117 368 -300 423 -335 15 -10 24 -22 20 -26 -5
-5 -157 -4 -338 1 -182 6 -548 17 -815 25 -267 8 -551 15 -631 15 -81 0 -160
3 -177 6 l-30 6 -6 152 c-3 83 -10 360 -16 616 -23 996 -70 1608 -126 1627
-40 13 -83 -305 -139 -1027 -30 -395 -71 -1004 -81 -1197 -4 -77 -10 -147 -14
-153 -6 -10 -119 -10 -531 -1 -494 11 -2312 41 -2520 41 l-96 0 -7 173 c-65
1659 -108 2196 -196 2393 -26 61 -54 72 -115 45 -57 -25 -90 -26 -140 -6 -49
21 -70 12 -89 -35 -37 -94 -41 -167 -41 -815 1 -556 8 -873 32 -1394 5 -128 4
-143 -10 -135 -8 5 -171 144 -361 308 l-346 300 0 42 c0 109 -57 310 -130 454
-73 145 -196 316 -317 441 -46 47 -53 60 -45 75 5 11 15 44 21 74 7 34 25 75
46 105 19 27 35 59 35 71 0 54 -130 134 -285 175 -61 16 -113 21 -220 22 -172
2 -269 -19 -425 -94 l-105 -50 -235 238 c-397 402 -572 620 -814 1015 -44 72
-86 118 -108 118 -5 0 -31 -21 -58 -46z m2014 -1825 c49 -83 108 -193 132
-244 43 -90 87 -205 81 -211 -8 -9 -248 206 -412 369 -161 161 -187 190 -172
199 32 17 140 36 213 37 l70 1 88 -151z m-540 -507 c116 -114 278 -264 360
-332 82 -69 162 -136 179 -151 l30 -25 -71 -17 c-102 -25 -299 -39 -432 -31
-190 11 -261 51 -324 183 -29 63 -31 73 -34 209 -3 87 1 162 8 190 26 109 52
182 62 182 6 0 106 -94 222 -208z m5563 -1794 c-26 -601 -31 -844 -31 -1555
-1 -442 -4 -802 -8 -800 -3 1 -208 183 -455 403 -246 221 -461 413 -478 427
-19 17 -26 29 -20 35 6 5 60 47 120 93 201 154 328 288 404 430 53 98 71 172
71 290 0 218 -107 438 -359 739 l-63 75 233 5 c129 3 315 7 413 8 l179 2 -6
-152z m-900 -55 c152 -315 194 -436 195 -561 0 -59 -5 -82 -27 -127 -50 -103
-189 -220 -447 -376 -72 -44 -139 -79 -149 -77 -17 3 -569 487 -569 500 0 11
138 93 230 137 95 46 211 76 439 116 191 33 241 48 282 82 30 26 31 29 23 77
-7 47 -7 90 -1 200 2 35 -2 43 -31 62 -58 40 -130 49 -372 49 -180 0 -242 -4
-308 -18 -215 -48 -421 -145 -629 -298 l-51 -38 -39 30 c-87 70 -461 404 -456
409 5 5 673 13 1439 18 l381 2 90 -187z m-1982 -463 c94 -79 184 -156 201
-172 l32 -30 -38 -81 c-109 -233 -135 -462 -74 -668 27 -93 94 -209 163 -281
256 -272 679 -295 1109 -62 l83 46 47 -39 c266 -217 663 -558 653 -561 -7 -2
-189 1 -405 7 -711 21 -1558 41 -1753 41 -192 0 -193 0 -197 23 -3 12 -7 328
-10 702 -3 374 -9 808 -12 965 -7 279 -6 285 12 269 10 -9 96 -80 189 -159z
m780 -661 c138 -113 300 -252 303 -260 3 -8 -110 -35 -185 -44 -73 -9 -155 10
-206 49 -72 55 -94 156 -62 280 20 75 23 80 43 63 10 -7 58 -47 107 -88z
m4598 -2853 c223 -149 362 -277 455 -419 115 -177 121 -355 18 -510 -59 -88
-56 -88 -134 -16 -536 495 -982 911 -982 917 0 14 104 71 165 92 80 27 164 39
255 37 l75 -2 148 -99z m-470 -578 c205 -167 445 -361 535 -432 89 -71 162
-133 162 -138 0 -13 -166 -87 -273 -123 -188 -61 -376 -91 -640 -101 -207 -8
-209 -8 -256 88 -47 95 -64 190 -64 363 -1 171 22 313 74 463 32 88 75 182 85
182 3 0 173 -136 377 -302z"/>
<path d="M4576 9690 c-26 -17 -83 -48 -125 -70 -99 -50 -112 -73 -87 -161 45
-165 177 -357 434 -636 l94 -103 -82 -87 c-94 -102 -181 -227 -204 -296 -27
-79 -19 -127 19 -127 13 0 119 48 236 106 118 59 238 117 267 130 l53 23 107
-81 c339 -256 719 -459 861 -462 40 -1 56 3 64 16 28 43 -87 196 -407 542 -92
99 -165 180 -164 181 2 2 82 38 178 80 469 207 716 361 781 487 27 52 24 79
-13 128 -18 23 -58 77 -88 118 -30 41 -67 84 -82 95 -25 19 -32 19 -80 8 -115
-25 -420 -182 -797 -408 l-223 -135 -25 24 c-14 13 -91 104 -171 203 -276 341
-326 398 -371 427 -61 38 -112 38 -175 -2z"/>
<path d="M3020 6931 c-36 -9 -122 -41 -192 -70 -198 -82 -948 -457 -1175 -587
l-41 -24 -69 83 c-79 94 -147 188 -193 267 -52 89 -101 148 -138 166 -29 13
-46 14 -115 5 -45 -6 -115 -13 -155 -17 -69 -6 -75 -8 -93 -38 -24 -40 -26
-162 -3 -250 33 -128 146 -329 249 -444 l45 -50 -158 -110 c-201 -140 -310
-228 -440 -356 -164 -160 -262 -310 -262 -399 0 -57 20 -56 113 3 223 144 546
312 898 468 103 45 189 82 193 82 4 0 172 -110 374 -244 349 -232 414 -280
597 -438 116 -101 140 -92 133 49 -10 191 -129 381 -437 696 -85 86 -152 159
-150 162 3 2 113 52 244 110 341 150 722 341 845 423 112 74 215 173 226 216
9 38 -2 69 -43 117 -20 24 -49 72 -64 106 -45 97 -70 107 -189 74z"/>
<path d="M9520 6770 c-297 -47 -613 -222 -858 -474 -323 -334 -443 -714 -305
-968 58 -106 190 -199 321 -227 80 -17 226 -13 322 8 464 104 1047 530 1236
904 46 89 68 178 60 240 -7 60 -46 130 -86 154 -17 9 -30 20 -30 24 0 4 16 26
35 49 22 27 35 52 35 71 0 63 -140 157 -295 199 -90 24 -336 36 -435 20z m580
-570 c-80 -124 -326 -309 -597 -448 -246 -126 -483 -202 -630 -202 -89 0 -90
4 -33 116 69 139 230 304 405 416 217 140 389 188 675 188 157 0 168 1 186 21
l19 21 3 -31 c2 -23 -6 -47 -28 -81z"/>
<path d="M1326 3851 c-41 -45 -47 -154 -16 -277 37 -143 125 -301 254 -453
l54 -64 -132 -100 c-391 -296 -628 -556 -667 -734 -11 -46 -10 -56 3 -69 14
-14 20 -14 57 5 22 12 78 45 123 75 167 108 370 221 665 369 l302 151 88 -61
c296 -204 870 -515 1002 -544 45 -9 55 -9 69 4 24 24 -2 96 -71 202 -47 70
-118 148 -323 353 -145 145 -264 265 -264 267 0 7 380 162 860 350 203 79 278
119 298 157 14 26 13 23 12 204 -1 148 -3 153 -75 173 -96 26 -299 0 -505 -65
-235 -74 -595 -233 -877 -388 l-101 -56 -47 52 c-69 76 -143 178 -219 300 -37
58 -82 120 -102 137 l-35 31 -168 0 c-151 0 -170 -2 -185 -19z"/>
<path d="M5820 3653 c0 -10 9 -33 20 -51 11 -18 20 -33 20 -35 0 -1 -71 -2
-157 -3 -244 -1 -390 -36 -618 -149 -166 -83 -293 -174 -419 -301 -262 -263
-397 -556 -398 -864 -1 -283 91 -492 308 -700 105 -99 189 -147 309 -176 109
-25 316 -15 466 24 286 74 653 264 908 470 155 126 241 247 293 412 20 66 23
94 22 225 -1 127 -5 165 -27 247 -29 110 -87 248 -151 361 -41 72 -42 76 -26
94 32 33 32 57 1 101 -37 50 -114 109 -201 153 -36 19 -96 59 -133 90 -70 58
-172 119 -201 119 -9 0 -16 -8 -16 -17z m224 -627 c68 -13 122 -29 127 -37 15
-23 47 -133 65 -220 23 -114 16 -293 -15 -371 -47 -121 -186 -231 -456 -363
-261 -127 -489 -195 -655 -195 -117 0 -146 13 -213 96 -72 88 -98 152 -105
250 -6 103 8 164 64 281 130 272 428 499 745 568 103 22 304 18 443 -9z"/>
</g>
</svg>
